<svg width="72" height="72" viewBox="0 0 72 72" fill="none" xmlns="http://www.w3.org/2000/svg">
<circle cx="36" cy="36" r="36" fill="#FFB9C0"/>
<path fill-rule="evenodd" clip-rule="evenodd" d="M14.4464 7.16479C20.4557 2.66514 27.9181 0 36.0029 0C55.8852 0 72.0029 16.1177 72.0029 36C72.0029 44.0865 69.3367 51.5503 64.8354 57.5603C58.4175 63.7963 49.659 67.6363 40.0036 67.6363C20.3221 67.6363 4.36719 51.6813 4.36719 31.9999C4.36719 22.3428 8.20843 13.5829 14.4464 7.16479Z" fill="#FFDBDE"/>
<path d="M52.5872 30.0185C55.1954 31.5456 55.1954 35.3635 52.5872 36.8907L32.048 48.9171C29.4399 50.4443 26.1797 48.5353 26.1797 45.481L26.1797 21.4282C26.1797 18.3739 29.4399 16.4649 32.048 17.9921L52.5872 30.0185Z" fill="#FF5F7A"/>
<path fill-rule="evenodd" clip-rule="evenodd" d="M32.0469 18.208L52.9181 30.258L36.4105 39.7887C34.4711 40.9084 32.0469 39.5087 32.0469 37.2693V18.208Z" fill="#FF7E92"/>
</svg>
